#!OML:ASF H:\Terrain\Walking\May29\JustinRory\Justin.ASF
:FULLY-SPECIFIED
:DEGREES
848
root 6.88611 18.0078 6.69841 -176.343 7.83021 181.041
lowerback 0.24554 -0.280008 -2.9183
upperback 0.670102 -0.368286 0.557438
thorax 0.571433 -0.199276 2.20649
lowerneck -8.26344 -7.39955 -18.4469
upperneck 6.55046 -7.94926 4.85878
head 4.24329 -4.10347 3.86443
rclavicle 1.87603e-015 2.18663e-015
rhumerus -29.3105 -6.52808 -83.4159
rradius 28.2598
rwrist -10.3274
rhand -12.7033 22.2989
rfingers 7.12502
rthumb 13.3792 -7.25147
lclavicle 1.87603e-015 2.18663e-015
lhumerus -33.7775 20.7099 75.0457
lradius 30.6207
lwrist -10.1302
lhand 1.56302 38.0972
lfingers 7.12502
lthumb 27.0866 66.1741
rfemur -2.4725 2.88174 11.9687
rtibia 13.1059
rfoot -9.70545 -8.51536
rtoes -3.29734
lfemur -6.97716 0.603511 -22.9375
ltibia 22.0829
lfoot -14.3586 3.33702
ltoes -3.93065
849
root 6.88258 18.0067 6.69808 -176.39 7.80613 180.76
lowerback 0.176318 -0.288845 -3.09239
upperback 0.721305 -0.375293 0.42824
thorax 0.663575 -0.205011 2.17101
lowerneck -8.28431 -7.35837 -18.1417
upperneck 6.66812 -7.90379 4.62634
head 4.25658 -4.08862 3.74823
rclavicle 1.6847e-014 -5.96354e-016
rhumerus -29.2332 -6.71633 -83.4508
rradius 28.1767
rwrist -10.4117
rhand -12.3317 22.6115
rfingers 7.12502
rthumb 13.7373 -6.91507
lclavicle 1.6847e-014 -5.96354e-016
lhumerus -33.6154 20.4397 75.124
lradius 30.7774
lwrist -9.84681
lhand 1.51792 38.2767
lfingers 7.12502
lthumb 27.0435 66.3604
rfemur -2.50326 2.90309 11.6474
rtibia 13.2194
rfoot -9.97682 -8.5779
rtoes -4.42059
lfemur -6.93744 0.628683 -23.2489
ltibia 22.0212
lfoot -14.2771 3.24872
ltoes -4.12203
850
root 6.88249 18.0079 6.70163 -176.38 7.83674 180.725
lowerback 0.173918 -0.263785 -3.13479
upperback 0.701587 -0.342012 0.40807
thorax 0.642836 -0.18802 2.17431
lowerneck -8.5869 -7.29273 -18.1656
upperneck 7.25446 -7.76174 4.70996
head 4.47751 -4.03879 3.77545
rclavicle -1.14053e-014 -7.15625e-015
rhumerus -29.3094 -6.93583 -83.4077
rradius 28.1968
rwrist -10.501
rhand -12.1114 22.8991
rfingers 7.12502
rthumb 13.9497 -6.61295
lclavicle -1.14053e-014 -7.15625e-015
lhumerus -33.5228 20.2894 75.1738
lradius 30.8599
lwrist -9.62137
lhand 1.4863 38.5894
lfingers 7.12502
lthumb 27.0132 66.6778
rfemur -2.62171 2.9868 11.6019
rtibia 13.4082
rfoot -10.0878 -8.56577
rtoes -3.4293
lfemur -6.94258 0.501684 -23.293
ltibia 21.9681
lfoot -14.0195 3.34944
ltoes -3.64092
851
root 6.88514 18.0066 6.70593 -176.404 7.89912 180.877
lowerback 0.260585 -0.24124 -3.02891
upperback 0.747499 -0.314167 0.468712
thorax 0.639319 -0.173977 2.17754
lowerneck -9.02593 -7.20272 -18.2768
upperneck 7.66773 -7.55687 4.86797
head 4.66569 -3.9468 3.84432
rclavicle -1.42131e-014 -1.78906e-015
rhumerus -29.2332 -6.88793 -83.4855
rradius 28.2762
rwrist -10.5593
rhand -12.4512 22.9778
rfingers 7.12502
rthumb 13.6222 -6.55645
lclavicle -1.42131e-014 -1.78906e-015
lhumerus -33.4564 20.3467 75.2236
lradius 31.0307
lwrist -9.51167
lhand 1.58272 39.0107
lfingers 7.12502
lthumb 27.1055 67.0847
rfemur -2.70974 3.07545 11.7899
rtibia 13.6107
rfoot -10.0456 -8.59773
rtoes -3.38658
lfemur -6.88925 0.539607 -23.1285
ltibia 21.9161
lfoot -13.8267 3.49579
ltoes -4.50537
852
root 6.88705 18.0022 6.70915 -176.467 7.93712 180.987
lowerback 0.288152 -0.203086 -2.96073
upperback 0.907076 -0.259985 0.505042
thorax 0.78412 -0.149775 2.17654
lowerneck -9.28708 -7.16567 -17.8386
upperneck 7.50679 -7.48105 4.55449
head 4.61959 -3.90193 3.68077
rclavicle 1.06847e-014 1.0138e-014
rhumerus -28.954 -6.88897 -83.5717
rradius 28.2462
rwrist -10.6241
rhand -12.8105 23.1473
rfingers 7.12502
rthumb 13.2759 -6.40985
lclavicle 1.06847e-014 1.0138e-014
lhumerus -33.2263 20.4081 75.3531
lradius 31.2204
lwrist -9.4811
lhand 1.76599 39.2794
lfingers 7.12502
lthumb 27.2808 67.3259
rfemur -2.71516 3.12439 11.9312
rtibia 13.735
rfoot -9.9702 -8.64134
rtoes -4.4012
lfemur -6.80811 0.74753 -23.0002
ltibia 21.8962
lfoot -13.9732 3.44614
ltoes -6.28206
853
root 6.88678 18.0001 6.70981 -176.488 7.92185 180.924
lowerback 0.223526 0.00161929 -2.9952
upperback 0.879491 0.0157559 0.347107
thorax 0.775593 -0.0110376 2.03489
lowerneck -8.39569 -7.16266 -16.8379
upperneck 6.79274 -7.72787 3.97058
head 4.21558 -4.00698 3.36068
rclavicle 8.92046e-015 -1.13307e-014
rhumerus -29.2045 -7.83404 -83.4413
rradius 28.2289
rwrist -10.7099
rhand -12.45 23.3923
rfingers 7.12502
rthumb 13.6233 -6.14189
lclavicle 8.92046e-015 -1.13307e-014
lhumerus -33.0619 19.7106 75.4556
lradius 31.1539
lwrist -9.47385
lhand 1.69706 39.0365
lfingers 7.12502
lthumb 27.2148 67.0934
rfemur -2.67552 3.12082 11.8638
rtibia 13.6859
rfoot -9.98517 -8.65375
rtoes -5.0949
lfemur -6.82616 0.795797 -23.0661
ltibia 21.9596
lfoot -14.1406 3.36925
ltoes -6.69058
854
root 6.88577 18.0008 6.70921 -176.487 7.8972 180.913
lowerback 0.170431 -0.223031 -3.15598
upperback 1.07136 -0.278494 0.614764
thorax 1.02174 -0.166035 2.3981
lowerneck -8.86909 -7.02862 -17.0944
upperneck 6.51477 -7.37912 3.69769
head 4.17025 -3.82732 3.33248
rclavicle -6.68413e-015 -9.93923e-016
rhumerus -28.7106 -6.92837 -83.4264
rradius 28.2272
rwrist -11.2897
rhand -12.0269 23.1189
rfingers 7.12502
rthumb 14.0311 -6.38753
lclavicle -6.68413e-015 -9.93923e-016
lhumerus -32.9211 20.6909 75.6102
lradius 31.1553
lwrist -9.60324
lhand 1.71742 38.7738
lfingers 7.12502
lthumb 27.2343 66.8277
rfemur -2.56031 3.10195 11.8518
rtibia 13.4667
rfoot -9.94894 -8.66703
rtoes -5.29523
lfemur -6.88913 0.712951 -23.0866
ltibia 22.1028
lfoot -14.2441 3.41984
ltoes -6.71172
855
root 6.8849 18.0033 6.71057 -176.476 7.96046 181.28
lowerback 0.135356 -0.18263 -2.85042
upperback 1.07589 -0.225899 0.741682
thorax 1.04157 -0.137983 2.35716
lowerneck -8.41346 -6.91302 -17.0528
upperneck 6.1927 -7.33307 3.78616
head 3.99337 -3.7924 3.37554
rclavicle 1.04859e-014 -5.56597e-015
rhumerus -28.9242 -6.51055 -83.5305
rradius 28.5153
rwrist -11.6699
rhand -12.4717 22.3427
rfingers 7.12502
rthumb 13.6024 -7.19291
lclavicle 1.04859e-014 -5.56597e-015
lhumerus -33.0526 20.6666 75.6332
lradius 31.3389
lwrist -9.58942
lhand 1.86613 38.8568
lfingers 7.12502
lthumb 27.3766 66.8883
rfemur -2.41125 3.25477 12.2646
rtibia 13.2116
rfoot -9.7975 -8.75548
rtoes -4.91689
lfemur -6.91458 0.637121 -22.6804
ltibia 22.2532
lfoot -14.3806 3.41954
ltoes -4.68973
856
root 6.88504 18.0048 6.7144 -176.489 7.98374 181.621
lowerback 0.198842 -0.0457284 -2.43698
upperback 1.08747 -0.0456842 0.706616
thorax 1.00566 -0.043252 2.09029
lowerneck -8.25385 -6.90925 -16.8816
upperneck 6.04977 -7.41905 4.03391
head 3.93393 -3.82234 3.42718
rclavicle -3.55328e-015 -3.57812e-015
rhumerus -29.1413 -6.94356 -83.5881
rradius 28.6928
rwrist -11.3857
rhand -12.9472 21.9296
rfingers 7.12502
rthumb 13.1441 -7.63615
lclavicle -3.55328e-015 -3.57812e-015
lhumerus -33.0076 20.1359 75.6738
lradius 31.4956
lwrist -9.45017
lhand 1.62139 38.7881
lfingers 7.12502
lthumb 27.1424 66.8564
rfemur -2.26159 3.4043 12.6616
rtibia 13.0076
rfoot -9.64162 -8.87009
rtoes -4.58549
lfemur -6.92487 0.677864 -22.2847
ltibia 22.3721
lfoot -14.2821 3.33467
ltoes -2.4928
857
root 6.88366 18.0069 6.71519 -176.443 7.9878 181.559
lowerback 0.113223 0.0511539 -2.48679
upperback 1.11068 0.0865934 0.63893
thorax 1.07035 0.0216249 2.04982
lowerneck -8.27165 -6.8848 -16.6578
upperneck 5.83245 -7.42092 4.06531
head 3.8617 -3.81015 3.40591
rclavicle -4.22417e-016 4.57205e-015
rhumerus -29.1621 -7.48683 -83.4883
rradius 28.6331
rwrist -10.9095
rhand -12.9737 22.1969
rfingers 7.12502
rthumb 13.1185 -7.37047
lclavicle -4.22417e-016 4.57205e-015
lhumerus -32.8969 19.6825 75.828
lradius 31.6115
lwrist -9.3361
lhand 1.42175 38.7365
lfingers 7.12502
lthumb 26.9514 66.8344
rfemur -2.26101 3.39752 12.5865
rtibia 12.8729
rfoot -9.49835 -8.88799
rtoes -4.93864
lfemur -7.03813 0.763445 -22.3577
ltibia 22.4612
lfoot -14.1119 3.34761
ltoes -2.65054
858
root 6.88123 18.0077 6.7183 -176.42 8.00666 181.359
lowerback 0.0260752 0.0595126 -2.81393
upperback 1.16817 0.102605 0.713711
thorax 1.17725 0.0241613 2.31083
lowerneck -8.48337 -6.75929 -16.8991
upperneck 5.70618 -7.20927 4.31932
head 3.85322 -3.69301 3.53445
rclavicle -1.66979e-014 -3.77691e-015
rhumerus -29.0391 -7.45306 -83.2994
rradius 28.5381
rwrist -10.7172
rhand -12.8448 22.6395
rfingers 7.12502
rthumb 13.2428 -6.91979
lclavicle -1.66979e-014 -3.77691e-015
lhumerus -32.8542 19.7557 76.084
lradius 31.7211
lwrist -9.39765
lhand 1.49722 38.5916
lfingers 7.12502
lthumb 27.0237 66.6783
rfemur -2.32769 3.34507 12.3485
rtibia 12.8502
rfoot -9.45428 -8.8803
rtoes -5.19875
lfemur -7.12151 0.683146 -22.5979
ltibia 22.4982
lfoot -14.2499 3.47727
ltoes -3.65459
859
root 6.87942 18.0044 6.72243 -176.54 8.03596 181.28
lowerback 0.333824 0.170055 -2.70264
upperback 1.05649 0.240438 0.502167
thorax 0.882637 0.100502 2.03083
lowerneck -8.24989 -6.61186 -16.5582
upperneck 5.47895 -7.14166 4.58933
head 3.73498 -3.64338 3.58316
rclavicle -1.06847e-015 -1.98785e-016
rhumerus -29.4829 -8.02161 -83.301
rradius 28.6658
rwrist -10.7531
rhand -12.1584 22.7734
rfingers 7.12502
rthumb 13.9043 -6.74171
lclavicle -1.06847e-015 -1.98785e-016
lhumerus -33.0436 19.1317 75.9591
lradius 31.8597
lwrist -9.24915
lhand 1.58761 38.1896
lfingers 7.12502
lthumb 27.1101 66.2629
rfemur -2.2364 3.35527 12.2581
rtibia 12.85
rfoot -9.56004 -8.85046
rtoes -5.3507
lfemur -7.018 0.508693 -22.7018
ltibia 22.5076
lfoot -14.4431 3.68716
ltoes -4.31836
860
root 6.8776 18.0051 6.72328 -176.657 8.03246 181.364
lowerback 0.540264 0.218394 -2.54501
upperback 1.10397 0.30175 0.4596
thorax 0.813011 0.13394 1.8981
lowerneck -8.35942 -6.57987 -16.2738
upperneck 5.12602 -7.12806 4.67357
head 3.6344 -3.61512 3.56915
rclavicle 2.08227e-014 3.37934e-015
rhumerus -29.6088 -8.31854 -83.2517
rradius 28.7866
rwrist -10.8985
rhand -11.6566 22.5301
rfingers 7.12502
rthumb 14.3879 -6.95128
lclavicle 2.08227e-014 3.37934e-015
lhumerus -33.0332 18.7427 76.0336
lradius 32.0378
lwrist -9.02458
lhand 1.61215 38.1199
lfingers 7.12502
lthumb 27.1336 66.1895
rfemur -2.05775 3.39161 12.3584
rtibia 12.7664
rfoot -9.57083 -8.81641
rtoes -5.37398
lfemur -6.87017 0.409175 -22.6132
ltibia 22.5237
lfoot -14.512 3.77265
ltoes -4.29647
861
root 6.86732 18.0091 6.72057 -176.565 7.93134 181.528
lowerback 0.494976 0.156758 -2.30971
upperback 1.15781 0.221319 0.56614
thorax 0.898009 0.0939297 1.87552
lowerneck -8.74663 -6.54934 -16.3355
upperneck 4.88997 -7.00591 4.69365
head 3.61388 -3.53803 3.58671
rclavicle 1.4064e-014 6.36111e-015
rhumerus -29.5307 -8.18274 -83.2083
rradius 28.8576
rwrist -10.9307
rhand -11.8153 22.361
rfingers 7.12502
rthumb 14.2349 -7.13115
lclavicle 1.4064e-014 6.36111e-015
lhumerus -33.0083 18.7327 76.2239
lradius 32.1553
lwrist -8.8927
lhand 1.59003 38.0356
lfingers 7.12502
lthumb 27.1124 66.1085
rfemur -2.03545 3.22687 12.4835
rtibia 12.6152
rfoot -9.50895 -8.73305
rtoes -4.66747
lfemur -6.9332 0.12758 -22.492
ltibia 22.534
lfoot -14.4814 3.91227
ltoes -4.15174
